HIERARCHY
ROOT Hips
{
	OFFSET 0.000000 0.000000 0.000000 
	CHANNELS 6 Xposition Yposition Zposition Yrotation Zrotation Xrotation 
	JOINT Lumbar
	{
		OFFSET 0.000000 0.000000 0.000000 
		CHANNELS 3 Zrotation Xrotation Yrotation
		JOINT Neck
		{
			OFFSET 0.000000 0.445665 0.000000 
			CHANNELS 3 Zrotation Xrotation Yrotation
			End Site
			{
				OFFSET 0.000000 0.227535 0.000000 
			}
		}
		JOINT RightShoulder
		{
			OFFSET 0.019635 0.377685 0.194865 
			CHANNELS 3 Zrotation Xrotation Yrotation
			JOINT RightElbow
			{
				OFFSET 0.000000 -0.243375 0.000000 
				CHANNELS 2 Zrotation Yrotation
				JOINT RightWrist
				{
					OFFSET 0.000000 -0.264825 0.000000 
					CHANNELS 2 Zrotation Xrotation
					End Site
					{
						OFFSET 0.006600 -0.176220 0.000990 
					}
				}
			}
		}
		JOINT LeftShoulder
		{
			OFFSET 0.019635 0.377685 -0.194865 
			CHANNELS 3 Zrotation Xrotation Yrotation
			JOINT LeftElbow
			{
				OFFSET 0.000000 -0.243375 0.000000 
				CHANNELS 2 Zrotation Yrotation
				JOINT LeftWrist
				{
					OFFSET 0.000000 -0.264825 0.000000 
					CHANNELS 2 Zrotation Xrotation
					End Site
					{
						OFFSET 0.006600 -0.176220 -0.000990 
					}
				}
			}
		}
	}
	JOINT RightHip
	{
		OFFSET 0.052140 -0.069960 0.075570 
		CHANNELS 3 Zrotation Xrotation Yrotation
		JOINT RightKnee
		{
			OFFSET 0.000000 -0.402270 0.000000 
			CHANNELS 1 Zrotation
			JOINT RightAnkle
			{
				OFFSET 0.000000 -0.404085 0.000000 
				CHANNELS 3 Zrotation Xrotation Yrotation
				End Site
				{
					OFFSET 0.204105 -0.089430 0.008415 
				}
			}
		}
	}
	JOINT LeftHip
	{
		OFFSET 0.052140 -0.069960 -0.075570 
		CHANNELS 3 Zrotation Xrotation Yrotation
		JOINT LeftKnee
		{
			OFFSET 0.000000 -0.402270 0.000000 
			CHANNELS 1 Zrotation
			JOINT LeftAnkle
			{
				OFFSET 0.000000 -0.404085 0.000000 
				CHANNELS 3 Zrotation Xrotation Yrotation
				End Site
				{
					OFFSET 0.204105 -0.089430 -0.008415 
				}
			}
		}
	}
}
MOTION
Frames: 20
Frame Time: 0.02
-0 0.95578 -0 170.08261 0 3.92004 9.50122 -2.08567 -3.68746 -38.57955 7.06135 8.27307 26.28375 -21.23072 -12.00097 12.26002 81.16668 0.52659 3.07949 29.50063 -2.52642 2.83451 7.63035 -73.98581 -5.98438 0.21453 0.39066 0.92591 10.8955 -19.56752 11.01705 -9.96491 -14.78395 -0.783 -4.01499 -7.27119 -16.19327 8.82455 8.4705 13.54362
-2e-05 0.95548 7e-05 169.95478 0 3.91365 9.54875 -1.84117 -3.54611 -38.40865 6.28954 7.53434 26.32023 -20.09476 -12.20176 11.99827 80.96821 0.29921 2.85164 29.34169 -1.49736 2.61743 7.76529 -74.1792 -5.94481 0.11357 0.40641 0.93572 11.03894 -19.59417 11.08183 -10.01533 -14.78283 -0.80107 -4.02019 -7.19667 -16.21114 8.90196 8.51927 13.58041
-4e-05 0.95519 0.00014 169.82751 0 3.90746 9.59557 -1.59856 -3.40538 -38.23955 5.52345 6.80108 26.35724 -18.96715 -12.40182 11.7379 80.77128 0.07377 2.62592 29.18481 -0.47577 2.40096 7.89928 -74.37102 -5.90548 0.01349 0.42272 0.9454 11.18156 -19.62154 11.14641 -10.06559 -14.78158 -0.81872 -4.02546 -7.1223 -16.22915 8.97883 8.56768 13.61679
-5e-05 0.95489 0.0002 169.70133 0 3.90188 9.64165 -1.36145 -3.26727 -38.07482 4.77295 6.08367 26.39372 -17.86286 -12.59748 11.48202 80.57873 -0.1468 2.40547 29.03243 0.52463 2.18771 8.03047 -74.55825 -5.86686 -0.08434 0.44062 0.95486 11.32341 -19.65152 11.21051 -10.11534 -14.78096 -0.83554 -4.03095 -7.04771 -16.24756 9.05428 8.61526 13.65172
-0.0001 0.95457 0.00027 169.56952 0 3.89296 9.69373 -1.09559 -3.11714 -37.88571 3.94012 5.28372 26.42945 -16.63622 -12.81236 11.20417 80.36314 -0.39399 2.15585 28.8537 1.63569 1.96093 8.1761 -74.7695 -5.82465 -0.19442 0.44905 0.96573 11.47069 -19.66706 11.27684 -10.16737 -14.77839 -0.8576 -4.03512 -6.97415 -16.26345 9.13727 8.66742 13.69412
-5e-05 0.95431 0.00033 169.44968 0 3.89118 9.73162 -0.89056 -2.99131 -37.74915 3.2821 4.65819 26.46912 -15.66881 -12.98915 10.97183 80.19639 -0.58409 1.96902 28.7326 2.51265 1.76059 8.29131 -74.92993 -5.78994 -0.27826 0.4782 0.97344 11.60543 -19.71353 11.33858 -10.21478 -14.77901 -0.86796 -4.04217 -6.89856 -16.28493 9.20419 8.70971 13.72082
0.00024 0.95419 0.00037 169.36088 0 3.90907 9.73988 -0.8557 -2.94212 -37.74938 3.10787 4.52279 26.49923 -15.42411 -13.03723 10.87425 80.16603 -0.62059 1.9497 28.75617 2.73469 1.64933 8.32074 -74.94814 -5.77691 -0.29099 0.56223 0.97379 11.7161 -19.84665 11.38678 -10.24779 -14.79663 -0.84963 -4.05681 -6.81432 -16.32091 9.22718 8.72579 13.70217
0.00065 0.95412 0.00041 169.28424 0 3.93416 9.73062 -0.88168 -2.91563 -37.80203 3.10982 4.56191 26.5359 -15.44012 -13.05043 10.82112 80.18478 -0.59892 1.99482 28.83894 2.72216 1.56083 8.32007 -74.91565 -5.77136 -0.27675 0.66807 0.97074 11.81252 -20.01099 11.43031 -10.27626 -14.81596 -0.81843 -4.07444 -6.72832 -16.36294 9.23371 8.73164 13.66806
0.00104 0.95403 0.00044 169.20348 0 3.95606 9.72501 -0.87853 -2.87249 -37.83888 3.03021 4.51535 26.58448 -15.33151 -13.096 10.7413 80.17993 -0.60097 2.01429 28.90624 2.82273 1.4524 8.33404 -74.90727 -5.76158 -0.27431 0.76508 0.96834 11.90848 -20.16035 11.47688 -10.3082 -14.82925 -0.79125 -4.091 -6.64519 -16.40261 9.24774 8.74157 13.64225
0.0013 0.95394 0.00047 169.11761 0 3.97776 9.74355 -0.88215 -2.85615 -37.85079 2.95663 4.4951 26.57521 -15.2468 -13.0752 10.68776 80.18009 -0.61367 2.01848 28.93218 2.89593 1.38792 8.34289 -74.89333 -5.75482 -0.27483 0.85597 0.96958 12.03281 -20.31276 11.52051 -10.3351 -14.8649 -0.77336 -4.1064 -6.554 -16.43985 9.26242 8.75419 13.61087
0.00186 0.95386 0.00052 169.04425 0 4.0014 9.70015 -0.8855 -2.78929 -37.91592 2.91277 4.46227 26.68172 -15.17683 -13.18011 10.59143 80.18197 -0.59136 2.06974 29.04968 2.9703 1.23298 8.35657 -74.88021 -5.74414 -0.26151 0.96669 0.96263 12.09578 -20.4666 11.56799 -10.37029 -14.85418 -0.7311 -4.12482 -6.47836 -16.48457 9.27094 8.75841 13.58766
0.00297 0.95372 0.00063 169.01153 0 4.03014 9.5521 -0.87845 -2.57833 -38.20851 2.90419 4.34505 27.15866 -15.06171 -13.67523 10.35531 80.172 -0.47856 2.23491 29.47828 3.10673 0.85991 8.37996 -74.87102 -5.71606 -0.22798 1.1117 0.93244 11.98318 -20.61538 11.63731 -10.43913 -14.71698 -0.63992 -4.15195 -6.45334 -16.54203 9.27433 8.74522 13.58863
0.00441 0.95359 0.00079 168.98966 0 4.06029 9.32945 -0.868 -2.31566 -38.53388 2.92029 4.21023 27.74122 -14.95685 -14.29032 10.07737 80.16266 -0.33429 2.44482 29.98245 3.25217 0.38831 8.41131 -74.86641 -5.68482 -0.17966 1.27952 0.89452 11.81101 -20.7659 11.70877 -10.51468 -14.53293 -0.52073 -4.18186 -6.44289 -16.60945 9.27073 8.72336 13.5986
0.00584 0.95347 0.00095 168.95639 0 4.08879 9.1018 -0.85579 -2.0759 -38.78503 2.9273 4.08825 28.24226 -14.86135 -14.8295 9.82464 80.15637 -0.20935 2.63506 30.40554 3.39258 -0.06289 8.44626 -74.8668 -5.65791 -0.13023 1.44577 0.86095 11.67257 -20.91515 11.77269 -10.58082 -14.36873 -0.40577 -4.20973 -6.42076 -16.67469 9.26505 8.70326 13.60606
0.00668 0.95329 0.00098 168.9493 0 4.1218 9.04292 -0.85993 -1.839 -39.29482 2.93085 3.95274 28.88877 -14.71447 -15.46312 9.54407 80.13878 -0.06007 2.8267 31.03197 3.5288 -0.41136 8.44975 -74.83559 -5.61835 -0.11158 1.57237 0.82325 11.50597 -21.06299 11.86428 -10.67359 -14.20968 -0.33071 -4.2408 -6.41905 -16.72427 9.28059 8.69185 13.60696
0.00885 0.95323 0.00131 168.89202 0 4.14567 8.6086 -0.82808 -1.58409 -39.26503 2.94598 3.83796 29.25263 -14.67524 -15.92224 9.31497 80.14288 0.04388 3.02277 31.24707 3.67888 -0.99624 8.52097 -74.87188 -5.60517 -0.02733 1.79083 0.79299 11.38349 -21.21944 11.8987 -10.71264 -14.03 -0.16046 -4.26606 -6.37938 -16.81622 9.25097 8.66059 13.62304
0.01441 0.95359 0.00237 168.67697 0 4.14363 7.21006 -0.70016 -1.28732 -37.80551 2.97906 3.79264 28.85091 -14.91617 -15.93034 9.20287 80.21794 0.02586 3.24059 30.35064 3.86677 -2.22166 8.77842 -75.09407 -5.65814 0.24892 2.22266 0.77983 11.40161 -21.35211 11.77603 -10.60105 -13.7935 0.21869 -4.27216 -6.22109 -16.96024 9.09502 8.57534 13.68539
0.02134 0.95406 0.00373 168.41404 0 4.13223 5.42592 -0.53526 -0.97478 -35.78946 3.02346 3.7666 28.15444 -15.26652 -15.74935 9.14964 80.31228 -0.04144 3.45713 29.03011 4.06922 -3.67991 9.10382 -75.38399 -5.73925 0.58808 2.75312 0.77547 11.46482 -21.50304 11.5959 -10.43544 -13.53946 0.70186 -4.27248 -6.02536 -17.15897 8.89502 8.47083 13.76104
0.02778 0.95445 0.00499 168.18386 0 4.12544 3.78319 -0.38552 -0.67272 -33.98238 3.06707 3.72549 27.5649 -15.57503 -15.61346 9.09334 80.39044 -0.0933 3.66053 27.87441 4.26498 -5.02342 9.39733 -75.643 -5.81216 0.88849 3.26032 0.77057 11.50551 -21.67509 11.44078 -10.29483 -13.30152 1.16771 -4.27741 -5.85429 -17.37259 8.71687 8.37592 13.82709
0.03366 0.95497 0.00613 167.90776 0 4.11771 2.28187 -0.24314 -0.35568 -32.35946 3.09353 3.70986 27.08905 -15.85076 -15.64709 8.93864 80.50074 -0.11364 3.92359 26.83608 4.46092 -6.40641 9.69481 -75.90345 -5.86506 1.23135 3.67484 0.75067 11.55534 -21.71887 11.28888 -10.15202 -13.02974 1.50628 -4.27526 -5.65409 -17.41551 8.52883 8.27667 13.91065
